# xmcd CD database file
#
# Track frame offsets:
#	150
#	19059
#	37421
#	50606
#	73197
#	91670
#	107694
#	125755
#	142301
#	163763
#
# Disc length: 2463 seconds
#
# Revision: 1
# Processed by: cddbd v1.5.2PL0 Copyright (c) Steve Scherf et al.
# Submitted via: CDex 1.51
#
DISCID=97099d0a
DTITLE=Rcik Waters - The Road We're On
DYEAR=1900
DGENRE=Blues
TTITLE0=Rock Of Ages
TTITLE1=Coaster Blues
TTITLE2=F.I.N.E.
TTITLE3=Life Ain't Bad
TTITLE4=Marco Tide
TTITLE5=Make A Heart
TTITLE6=The Road We're On
TTITLE7=Marco Tonight
TTITLE8=What's It Gonna Take
TTITLE9=I Want To Hold You
EXTD=
EXTT0=
EXTT1=
EXTT2=
EXTT3=
EXTT4=
EXTT5=
EXTT6=
EXTT7=
EXTT8=
EXTT9=
PLAYORDER=
